<svg width="199" height="38" viewBox="0 0 199 38" fill="none" xmlns="http://www.w3.org/2000/svg">
<path d="M48.6477 14.4205C48.5568 13.5038 48.1667 12.7917 47.4773 12.2841C46.7879 11.7765 45.8523 11.5227 44.6705 11.5227C43.8674 11.5227 43.1894 11.6364 42.6364 11.8636C42.0833 12.0833 41.6591 12.3902 41.3636 12.7841C41.0758 13.178 40.9318 13.625 40.9318 14.125C40.9167 14.5417 41.0038 14.9053 41.1932 15.2159C41.3902 15.5265 41.6591 15.7955 42 16.0227C42.3409 16.2424 42.7348 16.4356 43.1818 16.6023C43.6288 16.7614 44.1061 16.8977 44.6136 17.0114L46.7045 17.5114C47.7197 17.7386 48.6515 18.0417 49.5 18.4205C50.3485 18.7992 51.0833 19.2652 51.7045 19.8182C52.3258 20.3712 52.8068 21.0227 53.1477 21.7727C53.4962 22.5227 53.6742 23.3826 53.6818 24.3523C53.6742 25.7765 53.3106 27.0114 52.5909 28.0568C51.8788 29.0947 50.8485 29.9015 49.5 30.4773C48.1591 31.0455 46.5417 31.3295 44.6477 31.3295C42.7689 31.3295 41.1326 31.0417 39.7386 30.4659C38.3523 29.8902 37.2689 29.0379 36.4886 27.9091C35.7159 26.7727 35.3106 25.3674 35.2727 23.6932H40.0341C40.0871 24.4735 40.3106 25.125 40.7045 25.6477C41.1061 26.1629 41.6402 26.553 42.3068 26.8182C42.9811 27.0758 43.7424 27.2045 44.5909 27.2045C45.4242 27.2045 46.1477 27.0833 46.7614 26.8409C47.3826 26.5985 47.8636 26.2614 48.2045 25.8295C48.5455 25.3977 48.7159 24.9015 48.7159 24.3409C48.7159 23.8182 48.5606 23.3788 48.25 23.0227C47.947 22.6667 47.5 22.3636 46.9091 22.1136C46.3258 21.8636 45.6098 21.6364 44.7614 21.4318L42.2273 20.7955C40.2652 20.3182 38.7159 19.572 37.5795 18.5568C36.4432 17.5417 35.8788 16.1742 35.8864 14.4545C35.8788 13.0455 36.2538 11.8144 37.0114 10.7614C37.7765 9.70833 38.8258 8.88636 40.1591 8.29545C41.4924 7.70454 43.0076 7.40909 44.7045 7.40909C46.4318 7.40909 47.9394 7.70454 49.2273 8.29545C50.5227 8.88636 51.5303 9.70833 52.25 10.7614C52.9697 11.8144 53.3409 13.0341 53.3636 14.4205H48.6477ZM66.1847 13.5455V17.1818H55.6733V13.5455H66.1847ZM58.0597 9.36364H62.9006V25.6364C62.9006 26.0833 62.9688 26.4318 63.1051 26.6818C63.2415 26.9242 63.4309 27.0947 63.6733 27.1932C63.9233 27.2917 64.2112 27.3409 64.5369 27.3409C64.7642 27.3409 64.9915 27.322 65.2188 27.2841C65.446 27.2386 65.6203 27.2045 65.7415 27.1818L66.5028 30.7841C66.2604 30.8598 65.9195 30.947 65.4801 31.0455C65.0407 31.1515 64.5066 31.2159 63.8778 31.2386C62.7112 31.2841 61.6884 31.1288 60.8097 30.7727C59.9384 30.4167 59.2604 29.8636 58.7756 29.1136C58.2907 28.3636 58.0521 27.4167 58.0597 26.2727V9.36364ZM74.3153 31.3295C73.2017 31.3295 72.2093 31.1364 71.3381 30.75C70.4669 30.3561 69.7775 29.7765 69.2699 29.0114C68.7699 28.2386 68.5199 27.2765 68.5199 26.125C68.5199 25.1553 68.6979 24.3409 69.054 23.6818C69.41 23.0227 69.8949 22.4924 70.5085 22.0909C71.1222 21.6894 71.8191 21.3864 72.5994 21.1818C73.3873 20.9773 74.2131 20.8333 75.0767 20.75C76.0919 20.6439 76.91 20.5455 77.5312 20.4545C78.1525 20.3561 78.6032 20.2121 78.8835 20.0227C79.1638 19.8333 79.304 19.553 79.304 19.1818V19.1136C79.304 18.3939 79.0767 17.8371 78.6222 17.4432C78.1752 17.0492 77.5388 16.8523 76.7131 16.8523C75.8419 16.8523 75.1487 17.0455 74.6335 17.4318C74.1184 17.8106 73.7775 18.2879 73.6108 18.8636L69.1335 18.5C69.3608 17.4394 69.8078 16.5227 70.4744 15.75C71.1411 14.9697 72.0009 14.3712 73.054 13.9545C74.1146 13.5303 75.3419 13.3182 76.7358 13.3182C77.7055 13.3182 78.6335 13.4318 79.5199 13.6591C80.4138 13.8864 81.2055 14.2386 81.8949 14.7159C82.5919 15.1932 83.1411 15.8068 83.5426 16.5568C83.9441 17.2992 84.1449 18.1894 84.1449 19.2273V31H79.554V28.5795H79.4176C79.1373 29.125 78.7623 29.6061 78.2926 30.0227C77.8229 30.4318 77.2585 30.7538 76.5994 30.9886C75.9403 31.2159 75.179 31.3295 74.3153 31.3295ZM75.7017 27.9886C76.4138 27.9886 77.0426 27.8485 77.5881 27.5682C78.1335 27.2803 78.5616 26.8939 78.8722 26.4091C79.1828 25.9242 79.3381 25.375 79.3381 24.7614V22.9091C79.1866 23.0076 78.9782 23.0985 78.7131 23.1818C78.4555 23.2576 78.1638 23.3295 77.8381 23.3977C77.5123 23.4583 77.1866 23.5152 76.8608 23.5682C76.535 23.6136 76.2396 23.6553 75.9744 23.6932C75.4063 23.7765 74.91 23.9091 74.4858 24.0909C74.0616 24.2727 73.732 24.5189 73.4972 24.8295C73.2623 25.1326 73.1449 25.5114 73.1449 25.9659C73.1449 26.625 73.3835 27.1288 73.8608 27.4773C74.3456 27.8182 74.9593 27.9886 75.7017 27.9886ZM90.2642 37.5455C89.6506 37.5455 89.0748 37.4962 88.5369 37.3977C88.0066 37.3068 87.5672 37.1894 87.2188 37.0455L88.3097 33.4318C88.8778 33.6061 89.3892 33.7008 89.8438 33.7159C90.3059 33.7311 90.7036 33.625 91.0369 33.3977C91.3778 33.1705 91.6544 32.7841 91.8665 32.2386L92.1506 31.5L85.8892 13.5455H90.9801L94.5938 26.3636H94.7756L98.4233 13.5455H103.548L96.7642 32.8864C96.4384 33.8258 95.9953 34.6439 95.4347 35.3409C94.8816 36.0455 94.1809 36.5871 93.3324 36.9659C92.4839 37.3523 91.4612 37.5455 90.2642 37.5455ZM118.741 14.4205C118.651 13.5038 118.26 12.7917 117.571 12.2841C116.882 11.7765 115.946 11.5227 114.764 11.5227C113.961 11.5227 113.283 11.6364 112.73 11.8636C112.177 12.0833 111.753 12.3902 111.457 12.7841C111.17 13.178 111.026 13.625 111.026 14.125C111.01 14.5417 111.098 14.9053 111.287 15.2159C111.484 15.5265 111.753 15.7955 112.094 16.0227C112.435 16.2424 112.829 16.4356 113.276 16.6023C113.723 16.7614 114.2 16.8977 114.707 17.0114L116.798 17.5114C117.813 17.7386 118.745 18.0417 119.594 18.4205C120.442 18.7992 121.177 19.2652 121.798 19.8182C122.42 20.3712 122.901 21.0227 123.241 21.7727C123.59 22.5227 123.768 23.3826 123.776 24.3523C123.768 25.7765 123.404 27.0114 122.685 28.0568C121.973 29.0947 120.942 29.9015 119.594 30.4773C118.253 31.0455 116.635 31.3295 114.741 31.3295C112.863 31.3295 111.226 31.0417 109.832 30.4659C108.446 29.8902 107.363 29.0379 106.582 27.9091C105.81 26.7727 105.404 25.3674 105.366 23.6932H110.128C110.181 24.4735 110.404 25.125 110.798 25.6477C111.2 26.1629 111.734 26.553 112.401 26.8182C113.075 27.0758 113.836 27.2045 114.685 27.2045C115.518 27.2045 116.241 27.0833 116.855 26.8409C117.476 26.5985 117.957 26.2614 118.298 25.8295C118.639 25.3977 118.81 24.9015 118.81 24.3409C118.81 23.8182 118.654 23.3788 118.344 23.0227C118.041 22.6667 117.594 22.3636 117.003 22.1136C116.42 21.8636 115.704 21.6364 114.855 21.4318L112.321 20.7955C110.359 20.3182 108.81 19.572 107.673 18.5568C106.537 17.5417 105.973 16.1742 105.98 14.4545C105.973 13.0455 106.348 11.8144 107.105 10.7614C107.87 9.70833 108.92 8.88636 110.253 8.29545C111.586 7.70454 113.101 7.40909 114.798 7.40909C116.526 7.40909 118.033 7.70454 119.321 8.29545C120.616 8.88636 121.624 9.70833 122.344 10.7614C123.063 11.8144 123.435 13.0341 123.457 14.4205H118.741ZM138.188 23.5682V13.5455H143.028V31H138.381V27.8295H138.199C137.805 28.8523 137.15 29.6742 136.233 30.2955C135.324 30.9167 134.214 31.2273 132.903 31.2273C131.737 31.2273 130.71 30.9621 129.824 30.4318C128.938 29.9015 128.244 29.1477 127.744 28.1705C127.252 27.1932 127.002 26.0227 126.994 24.6591V13.5455H131.835V23.7955C131.843 24.8258 132.119 25.6402 132.665 26.2386C133.21 26.8371 133.941 27.1364 134.858 27.1364C135.441 27.1364 135.987 27.0038 136.494 26.7386C137.002 26.4659 137.411 26.0644 137.722 25.5341C138.04 25.0038 138.195 24.3485 138.188 23.5682ZM146.901 31V13.5455H151.594V16.5909H151.776C152.094 15.5076 152.628 14.6894 153.378 14.1364C154.128 13.5758 154.991 13.2955 155.969 13.2955C156.211 13.2955 156.473 13.3106 156.753 13.3409C157.033 13.3712 157.279 13.4129 157.491 13.4659V17.7614C157.264 17.6932 156.95 17.6326 156.548 17.5795C156.147 17.5265 155.779 17.5 155.446 17.5C154.734 17.5 154.098 17.6553 153.537 17.9659C152.984 18.2689 152.545 18.6932 152.219 19.2386C151.901 19.7841 151.741 20.4129 151.741 21.125V31H146.901ZM167.136 31.3409C165.341 31.3409 163.795 30.9773 162.5 30.25C161.212 29.5152 160.22 28.4773 159.523 27.1364C158.826 25.7879 158.477 24.1932 158.477 22.3523C158.477 20.5568 158.826 18.9811 159.523 17.625C160.22 16.2689 161.201 15.2121 162.466 14.4545C163.739 13.697 165.231 13.3182 166.943 13.3182C168.095 13.3182 169.167 13.5038 170.159 13.875C171.159 14.2386 172.03 14.7879 172.773 15.5227C173.523 16.2576 174.106 17.1818 174.523 18.2955C174.939 19.4015 175.148 20.697 175.148 22.1818V23.5114H160.409V20.5114H170.591C170.591 19.8144 170.439 19.197 170.136 18.6591C169.833 18.1212 169.413 17.7008 168.875 17.3977C168.345 17.0871 167.727 16.9318 167.023 16.9318C166.288 16.9318 165.636 17.1023 165.068 17.4432C164.508 17.7765 164.068 18.2273 163.75 18.7955C163.432 19.3561 163.269 19.9811 163.261 20.6705V23.5227C163.261 24.3864 163.42 25.1326 163.739 25.7614C164.064 26.3902 164.523 26.875 165.114 27.2159C165.705 27.5568 166.405 27.7273 167.216 27.7273C167.754 27.7273 168.246 27.6515 168.693 27.5C169.14 27.3485 169.523 27.1212 169.841 26.8182C170.159 26.5152 170.402 26.1439 170.568 25.7045L175.045 26C174.818 27.0758 174.352 28.0152 173.648 28.8182C172.951 29.6136 172.049 30.2348 170.943 30.6818C169.845 31.1212 168.576 31.3409 167.136 31.3409Z" fill="white"/>
<path d="M8.75 22.7H12.25V18.025H15.75V22.7H19.25V14.625L14 11.225L8.75 14.625V22.7ZM14 33.495C17.5583 30.3217 20.1979 27.439 21.9187 24.8471C23.6396 22.2552 24.5 19.9528 24.5 17.94C24.5 14.8517 23.4867 12.3232 21.4602 10.3546C19.4337 8.386 16.947 7.40113 14 7.4C11.053 7.39887 8.56683 8.38373 6.5415 10.3546C4.51617 12.3255 3.50233 14.8539 3.5 17.94C3.5 19.9517 4.36042 22.254 6.08125 24.8471C7.80208 27.4402 10.4417 30.3228 14 33.495ZM14 38C9.30417 34.1183 5.79717 30.5132 3.479 27.1846C1.16083 23.856 0.00116667 20.7745 0 17.94C0 13.69 1.40758 10.3042 4.22275 7.7825C7.03792 5.26083 10.297 4 14 4C17.703 4 20.9627 5.26083 23.779 7.7825C26.5953 10.3042 28.0023 13.69 28 17.94C28 20.7733 26.8409 23.8549 24.5227 27.1846C22.2046 30.5143 18.697 34.1195 14 38Z" fill="white"/>
</svg>
