<svg width="28" height="34" viewBox="0 0 28 34" fill="none" xmlns="http://www.w3.org/2000/svg">
<path d="M8.75 18.7H12.25V14.025H15.75V18.7H19.25V10.625L14 7.225L8.75 10.625V18.7ZM14 29.495C17.5583 26.3217 20.1979 23.439 21.9187 20.8471C23.6396 18.2552 24.5 15.9528 24.5 13.94C24.5 10.8517 23.4867 8.3232 21.4602 6.3546C19.4337 4.386 16.947 3.40113 14 3.4C11.053 3.39887 8.56683 4.38373 6.5415 6.3546C4.51617 8.32547 3.50233 10.8539 3.5 13.94C3.5 15.9517 4.36042 18.254 6.08125 20.8471C7.80208 23.4402 10.4417 26.3228 14 29.495ZM14 34C9.30417 30.1183 5.79717 26.5132 3.479 23.1846C1.16083 19.856 0.00116667 16.7745 0 13.94C0 9.69 1.40758 6.30417 4.22275 3.7825C7.03792 1.26083 10.297 0 14 0C17.703 0 20.9627 1.26083 23.779 3.7825C26.5953 6.30417 28.0023 9.69 28 13.94C28 16.7733 26.8409 19.8549 24.5227 23.1846C22.2046 26.5143 18.697 30.1195 14 34Z" fill="#66DD89"/>
</svg>
